{"glyphs":{"0":{"ha":961,"x_min":39,"x_max":921,"o":"m 478 1081 q 799 926 678 1081 q 921 518 921 772 q 799 115 921 268 q 481 -39 678 -39 q 160 115 282 -39 q 39 519 39 268 q 160 925 39 769 q 478 1081 282 1081 m 482 839 q 353 756 399 839 q 308 519 308 672 q 354 283 308 368 q 481 199 400 199 q 607 282 563 199 q 651 519 651 365 q 607 756 651 672 q 482 839 563 839 z "},"1":{"ha":713,"x_min":118,"x_max":536,"o":"m 265 813 l 118 813 l 118 1042 l 536 1042 l 536 0 l 265 0 l 265 813 z "},"2":{"ha":964,"x_min":28,"x_max":863,"o":"m 47 683 q 79 853 53 790 q 224 1024 126 963 q 450 1085 321 1085 q 738 979 625 1085 q 851 713 851 874 q 818 556 851 626 q 697 392 785 486 l 547 229 l 863 229 l 863 0 l 28 0 l 292 276 q 410 411 354 342 q 508 542 475 492 q 571 719 571 633 q 535 816 571 776 q 449 856 500 856 q 344 789 374 856 q 328 683 329 756 l 47 683 z "},"3":{"ha":974,"x_min":38,"x_max":872,"o":"m 417 458 l 417 640 l 432 640 q 564 749 564 640 q 458 860 564 860 q 343 738 350 860 l 94 738 q 140 899 108 839 q 472 1079 236 1079 q 720 996 626 1079 q 814 775 814 913 q 764 618 814 685 q 701 563 743 590 q 788 514 758 543 q 872 296 872 431 q 759 49 872 143 q 463 -46 646 -46 q 185 46 317 -46 q 79 163 113 96 q 49 253 61 200 q 38 333 42 286 l 314 333 q 360 224 324 257 q 465 182 404 182 q 563 223 525 182 q 601 326 601 264 q 442 460 601 460 q 417 458 428 460 z "},"4":{"ha":944,"x_min":33,"x_max":915,"o":"m 788 436 l 915 436 l 915 214 l 788 214 l 788 0 l 538 0 l 538 214 l 33 214 l 33 388 l 436 1042 l 788 1042 l 788 436 m 538 436 l 538 804 l 303 436 l 538 436 z "},"5":{"ha":922,"x_min":40,"x_max":818,"o":"m 740 813 l 382 813 l 364 696 q 383 699 371 697 q 450 703 428 703 q 713 598 607 703 q 818 338 818 493 q 700 65 818 164 q 376 -35 582 -35 q 201 -11 288 -35 q 40 61 129 8 l 79 292 q 200 225 150 246 q 351 192 279 192 q 486 235 435 192 q 538 347 538 278 q 471 468 538 419 q 304 517 404 517 q 197 504 254 517 q 110 481 156 494 l 200 1042 l 740 1042 l 740 813 z "},"6":{"ha":978,"x_min":47,"x_max":929,"o":"m 436 1042 l 743 1042 l 482 724 q 540 732 506 732 q 818 623 707 732 q 929 350 929 514 q 804 67 929 176 q 482 -43 679 -43 q 169 63 290 -43 q 47 336 47 169 q 204 735 47 526 l 436 1042 m 483 515 q 361 465 411 515 q 311 343 311 415 q 361 222 311 272 q 482 171 411 171 q 603 222 553 171 q 653 343 653 272 q 603 465 653 414 q 483 515 553 515 z "},"7":{"ha":981,"x_min":71,"x_max":969,"o":"m 549 813 l 71 813 l 71 1042 l 969 1042 l 374 0 l 75 0 l 549 813 z "},"8":{"ha":972,"x_min":81,"x_max":892,"o":"m 290 549 q 189 617 222 582 q 124 782 124 685 q 225 997 124 914 q 489 1081 326 1081 q 750 999 651 1081 q 849 782 849 917 q 786 622 849 688 q 675 549 751 586 q 794 492 756 524 q 892 281 892 411 q 776 53 892 143 q 486 -37 661 -37 q 194 52 308 -37 q 81 282 81 142 q 171 490 81 414 q 290 549 211 524 m 488 889 q 402 857 436 889 q 368 778 368 825 q 402 699 368 731 q 486 667 436 667 q 570 699 536 667 q 604 779 604 732 q 570 857 604 825 q 488 889 536 889 m 488 429 q 395 395 432 429 q 358 310 358 361 q 395 224 358 258 q 486 189 432 189 q 577 224 540 189 q 614 310 614 258 q 577 395 614 361 q 488 429 540 429 z "},"9":{"ha":978,"x_min":47,"x_max":929,"o":"m 540 0 l 233 0 l 483 304 l 463 304 l 428 306 q 294 336 369 308 q 113 474 178 381 q 47 689 47 567 q 172 974 47 864 q 494 1083 296 1083 q 807 978 685 1083 q 929 707 929 872 q 772 306 929 513 l 540 0 m 493 526 q 615 576 565 526 q 665 697 665 625 q 615 818 665 768 q 494 868 565 868 q 374 818 424 868 q 324 697 324 768 q 374 576 324 626 q 493 526 424 526 z "}," ":{"ha":390,"x_min":0,"x_max":0,"o":""},"!":{"ha":468,"x_min":26,"x_max":421,"o":"m 211 293 q 322 247 279 293 q 357 132 364 200 q 297 18 350 65 q 178 -29 244 -29 q 69 18 111 -29 q 33 132 26 65 q 92 246 40 199 q 211 293 144 293 m 86 353 l 160 1042 l 421 1042 l 347 353 l 86 353 z "},"\"":{"ha":632,"x_min":63,"x_max":569,"o":"m 235 624 l 93 624 l 63 1042 l 279 1042 l 235 624 m 525 624 l 383 624 l 353 1042 l 569 1042 l 525 624 z "},"#":{"ha":933,"x_min":19,"x_max":917,"o":"m 860 465 l 839 286 l 685 286 l 629 0 l 424 0 l 479 286 l 365 286 l 311 0 l 107 0 l 163 286 l 19 286 l 42 465 l 196 465 l 221 597 l 79 597 l 101 776 l 256 776 l 307 1042 l 510 1042 l 458 776 l 572 776 l 622 1042 l 828 1042 l 776 776 l 917 776 l 894 597 l 744 597 l 719 465 l 860 465 m 539 597 l 425 597 l 399 465 l 513 465 l 539 597 z "},"$":{"ha":938,"x_min":74,"x_max":833,"o":"m 594 1096 l 594 1031 q 697 1006 657 1021 q 793 958 738 992 l 690 758 q 595 812 636 797 q 518 826 554 826 q 433 803 467 826 q 399 747 399 781 q 469 664 399 701 q 477 660 472 664 q 575 628 482 657 q 833 335 833 544 q 696 65 833 158 q 594 19 654 38 l 594 -60 l 361 -60 l 361 0 q 190 44 258 14 q 74 121 132 71 l 186 329 q 335 235 268 260 q 436 214 390 214 q 528 242 492 214 q 565 311 565 269 q 526 381 565 353 q 499 394 519 385 q 465 407 493 399 l 439 415 l 397 428 q 194 538 256 471 q 133 713 133 604 q 246 968 133 875 q 361 1028 289 1004 l 361 1096 l 594 1096 z "},"%":{"ha":1532,"x_min":47,"x_max":1485,"o":"m 953 1042 l 1182 1042 l 576 0 l 347 0 l 953 1042 m 354 1042 q 577 956 488 1042 q 667 743 667 871 q 577 530 667 617 q 357 443 488 443 q 137 530 226 443 q 47 744 47 617 q 135 956 47 871 q 354 1042 224 1042 m 1171 600 q 1394 514 1304 600 q 1485 301 1485 428 q 1395 88 1485 175 q 1175 0 1306 0 q 955 87 1044 0 q 865 301 865 174 q 953 514 865 428 q 1171 600 1042 600 m 357 864 q 274 829 308 864 q 239 744 239 794 q 274 661 239 696 q 357 626 308 626 q 440 661 406 626 q 475 746 475 696 q 440 829 475 794 q 357 864 406 864 m 1175 421 q 1092 387 1126 421 q 1057 303 1057 353 q 1092 219 1057 254 q 1175 185 1126 185 q 1258 219 1224 185 q 1293 303 1293 254 q 1258 386 1293 351 q 1175 421 1224 421 z "},"&":{"ha":1211,"x_min":83,"x_max":1201,"o":"m 690 535 l 824 399 q 974 536 896 465 l 1121 388 l 968 247 l 1201 0 l 865 0 l 774 94 q 568 -4 661 25 q 419 -28 490 -28 q 176 54 269 -28 q 83 268 83 136 q 190 496 83 414 q 228 521 207 508 q 332 574 254 536 q 246 703 261 661 q 235 782 235 735 q 327 988 235 907 q 560 1069 419 1069 q 792 989 700 1069 q 885 785 885 908 q 831 635 885 694 q 690 535 793 593 m 625 260 l 461 435 q 383 371 404 396 q 363 313 363 346 q 397 240 363 267 q 490 213 432 213 q 625 260 556 213 m 574 661 q 671 789 671 724 q 644 858 671 831 q 579 886 618 886 q 515 861 539 886 q 492 794 492 836 q 504 750 492 772 q 560 676 532 701 q 563 672 560 676 q 568 668 565 668 l 572 664 q 574 661 572 664 z "},"'":{"ha":342,"x_min":63,"x_max":279,"o":"m 235 624 l 93 624 l 63 1042 l 279 1042 l 235 624 z "},"(":{"ha":575,"x_min":104,"x_max":486,"o":"m 303 1265 l 486 1179 q 375 911 408 1032 q 326 536 326 731 q 388 107 326 317 q 486 -118 418 0 l 303 -204 q 268 -151 290 -183 q 201 -17 228 -85 q 104 543 104 235 q 167 972 104 765 q 303 1265 210 1114 z "},")":{"ha":574,"x_min":89,"x_max":469,"o":"m 271 -204 l 89 -118 q 200 150 169 32 q 247 524 247 329 q 189 943 247 738 q 89 1179 156 1060 l 271 1265 q 306 1213 285 1244 q 372 1081 349 1142 q 469 518 469 833 q 407 89 469 296 q 271 -204 364 -53 z "},"*":{"ha":1161,"x_min":101,"x_max":1163,"o":"m 1153 842 l 839 522 l 1163 204 l 963 1 l 639 318 l 328 0 l 115 208 l 426 526 l 101 844 l 301 1049 l 626 731 l 940 1050 l 1153 842 z "},"+":{"ha":1683,"x_min":282,"x_max":1403,"o":"m 1019 411 q 1000 393 1000 411 l 1000 19 q 986 0 1000 0 l 701 0 q 686 17 686 0 l 686 390 q 668 411 686 411 l 299 411 q 282 431 282 411 l 282 714 q 297 731 282 731 l 669 731 q 686 749 686 731 l 686 1069 q 700 1083 686 1083 l 983 1083 q 1000 1069 1000 1083 l 1000 749 q 1015 731 1000 731 l 1388 731 q 1403 713 1403 731 l 1403 428 q 1388 411 1403 411 l 1019 411 z "},",":{"ha":288,"x_min":6,"x_max":243,"o":"m 243 261 l 210 -232 l 19 -232 l 6 261 l 243 261 z "},"-":{"ha":456,"x_min":53,"x_max":404,"o":"m 53 440 l 404 440 l 404 254 l 53 254 l 53 440 z "},".":{"ha":461,"x_min":72,"x_max":389,"o":"m 389 143 q 344 26 389 74 q 232 -21 299 -21 q 119 27 167 -21 q 72 140 72 75 q 118 251 72 206 q 228 297 164 297 q 342 252 294 297 q 389 143 389 207 z "},"/":{"ha":836,"x_min":-44,"x_max":783,"o":"m 524 1222 l 783 1222 l 215 -160 l -44 -160 l 524 1222 z "},":":{"ha":468,"x_min":72,"x_max":396,"o":"m 72 131 q 119 247 72 199 q 235 294 167 294 q 349 247 301 294 q 396 133 396 200 q 349 18 396 65 q 233 -29 301 -29 q 120 18 168 -29 q 72 131 72 65 m 72 597 q 119 713 72 665 q 235 760 167 760 q 349 713 301 760 q 396 599 396 667 q 349 485 396 532 q 233 438 301 438 q 120 485 168 438 q 72 597 72 532 z "},";":{"ha":338,"x_min":-3,"x_max":314,"o":"m 154 718 q 268 673 222 718 q 314 560 314 628 q 269 447 314 493 q 158 400 224 400 q 45 448 93 400 q -3 563 -3 496 q 44 672 -3 626 q 154 718 90 718 m 283 261 l 249 -232 l 58 -232 l 44 261 l 283 261 z "},"<":{"ha":782,"x_min":53,"x_max":729,"o":"m 729 1026 l 729 733 l 365 528 l 728 322 l 729 31 l 53 406 l 53 651 l 729 1026 z "},"=":{"ha":1004,"x_min":94,"x_max":911,"o":"m 911 907 l 911 632 l 94 632 l 94 907 l 911 907 m 911 522 l 911 247 l 94 247 l 94 522 l 911 522 z "},">":{"ha":781,"x_min":53,"x_max":729,"o":"m 53 31 l 53 325 l 417 529 l 54 735 l 53 1026 l 729 651 l 729 406 l 53 31 z "},"?":{"ha":869,"x_min":92,"x_max":832,"o":"m 285 353 l 313 619 q 368 611 344 611 q 502 651 446 611 q 564 750 558 690 q 542 822 569 793 q 471 851 515 851 q 367 747 382 851 l 92 747 q 224 981 110 892 q 501 1071 338 1071 q 738 985 643 1071 q 832 775 832 900 q 795 631 832 700 q 696 518 758 561 q 550 449 642 481 l 539 353 l 285 353 m 235 131 q 294 246 243 199 q 414 293 346 293 q 524 247 482 293 q 558 132 565 200 q 499 18 551 65 q 379 -29 446 -29 q 272 18 314 -29 q 235 131 229 65 z "},"@":{"ha":1215,"x_min":57,"x_max":1160,"o":"m 900 783 l 858 440 q 854 372 854 406 q 871 346 854 346 q 904 354 886 346 q 992 444 958 379 q 1025 589 1025 510 q 913 844 1025 742 q 631 947 800 947 q 327 824 450 947 q 204 518 204 700 q 258 304 204 401 q 408 151 313 207 q 646 96 504 96 q 888 144 778 96 l 938 167 l 947 172 q 961 179 947 172 q 971 183 964 181 l 1021 58 l 1013 53 l 1001 47 l 993 44 l 957 26 q 646 -37 829 -37 q 332 36 461 -37 q 130 239 203 110 q 57 518 57 368 q 222 913 57 753 q 629 1074 386 1074 q 1006 934 853 1074 q 1160 592 1160 794 q 1070 327 1160 439 q 857 215 981 215 q 788 233 821 215 q 742 278 756 251 l 739 282 l 731 274 q 574 213 669 213 q 394 294 465 213 q 322 499 322 375 q 404 715 322 633 q 619 796 486 796 q 696 779 669 796 q 747 751 743 749 l 756 783 l 900 783 m 731 539 q 694 618 728 588 q 608 649 660 649 q 517 605 553 649 q 481 493 481 561 q 509 397 481 435 q 582 360 538 360 q 687 411 642 360 q 732 529 732 463 q 731 539 732 536 z "},"A":{"ha":1086,"x_min":-22,"x_max":1043,"o":"m 357 190 l 269 0 l -22 0 l 493 1042 l 790 1042 l 1043 0 l 765 0 l 719 190 l 357 190 m 454 399 l 667 399 l 628 581 q 613 650 621 611 q 599 738 608 674 q 586 701 594 724 q 551 614 571 656 l 454 399 z "},"B":{"ha":951,"x_min":76,"x_max":889,"o":"m 204 1042 l 538 1042 q 754 1008 692 1042 q 867 797 867 949 q 796 608 867 682 q 696 542 764 575 q 818 489 778 521 q 889 317 889 433 q 732 46 889 135 q 490 0 651 0 l 76 0 l 204 1042 m 442 833 l 417 625 l 507 625 q 586 656 556 625 q 617 738 617 688 q 592 807 617 781 q 525 833 567 833 l 442 833 m 393 435 l 367 207 l 436 207 q 621 336 621 207 q 472 435 621 435 l 393 435 z "},"C":{"ha":960,"x_min":85,"x_max":967,"o":"m 863 43 q 847 25 861 32 q 603 -21 753 -21 q 231 125 376 -21 q 85 497 85 271 q 250 899 85 735 q 656 1063 415 1063 q 904 1010 779 1063 q 967 963 967 983 l 967 958 l 942 754 q 932 728 939 728 q 922 732 929 728 l 907 744 q 681 813 824 813 q 447 727 539 813 q 356 510 356 642 q 435 308 356 386 q 640 229 515 229 q 774 247 704 229 q 869 286 844 264 q 878 292 872 292 q 883 285 883 292 q 882 269 883 276 l 863 43 z "},"D":{"ha":1089,"x_min":76,"x_max":1047,"o":"m 204 1042 l 526 1042 q 875 956 761 1042 q 1001 789 956 894 q 1047 558 1047 683 q 974 259 1047 394 q 778 62 900 124 q 419 0 656 0 l 76 0 l 204 1042 m 440 813 l 369 229 l 458 229 q 688 306 615 229 q 776 563 776 400 q 718 752 776 692 q 536 813 660 813 l 440 813 z "},"E":{"ha":764,"x_min":76,"x_max":775,"o":"m 775 1042 l 747 813 l 440 813 l 418 633 l 714 633 l 686 404 l 389 404 l 368 229 l 688 229 l 658 0 l 76 0 l 204 1042 l 775 1042 z "},"F":{"ha":767,"x_min":76,"x_max":799,"o":"m 799 1042 l 769 813 l 440 813 l 418 636 l 718 636 l 690 407 l 390 407 l 339 0 l 76 0 l 204 1042 l 799 1042 z "},"G":{"ha":1183,"x_min":85,"x_max":1138,"o":"m 639 579 l 1138 579 q 1135 514 1136 554 q 1107 350 1128 424 q 924 77 1058 175 q 600 -21 790 -21 q 228 122 372 -21 q 85 493 85 265 q 246 901 85 740 q 656 1061 407 1061 q 1006 931 874 1061 q 1119 757 1063 874 l 892 668 q 818 775 856 740 q 647 839 749 839 q 439 742 524 839 q 354 501 354 644 q 431 290 354 372 q 628 208 507 208 q 817 292 749 208 q 854 372 838 318 l 614 372 l 639 579 z "},"H":{"ha":1153,"x_min":76,"x_max":1117,"o":"m 1117 1042 l 989 0 l 725 0 l 779 433 l 393 433 l 339 0 l 76 0 l 204 1042 l 468 1042 l 421 663 l 807 663 l 853 1042 l 1117 1042 z "},"I":{"ha":504,"x_min":76,"x_max":468,"o":"m 468 1042 l 340 0 l 76 0 l 204 1042 l 468 1042 z "},"J":{"ha":786,"x_min":-10,"x_max":750,"o":"m 750 1042 l 663 325 q 569 85 643 169 q 325 -21 478 -21 q 89 71 176 -21 q -10 239 40 122 l 208 329 q 245 251 224 272 q 307 229 267 229 q 373 260 351 229 q 404 369 394 292 l 486 1042 l 750 1042 z "},"K":{"ha":1044,"x_min":76,"x_max":1060,"o":"m 468 1042 l 411 585 l 756 1042 l 1060 1042 l 661 511 l 1017 0 l 700 0 l 476 333 q 447 382 475 338 q 397 469 432 408 l 339 0 l 76 0 l 204 1042 l 468 1042 z "},"L":{"ha":742,"x_min":76,"x_max":700,"o":"m 468 1042 l 368 229 l 700 229 l 672 0 l 76 0 l 204 1042 l 468 1042 z "},"M":{"ha":1464,"x_min":29,"x_max":1356,"o":"m 1322 1042 l 1356 0 l 1092 0 l 1079 501 q 1081 558 1079 531 q 1092 674 1083 603 q 1074 625 1085 654 q 1018 503 1046 557 l 763 0 l 624 0 l 533 403 q 514 503 524 449 q 490 690 503 568 q 476 619 486 668 q 435 451 458 531 l 301 0 l 29 0 l 358 1042 l 619 1042 l 699 690 q 717 599 704 664 q 744 417 733 508 q 764 469 750 432 q 779 504 768 476 q 804 560 796 543 l 1050 1042 l 1322 1042 z "},"N":{"ha":1268,"x_min":76,"x_max":1232,"o":"m 1232 1042 l 1104 0 l 815 0 l 538 467 q 493 549 524 490 q 410 725 447 638 l 410 678 q 399 481 410 572 l 340 0 l 76 0 l 204 1042 l 489 1042 l 892 336 q 893 379 892 363 q 904 515 894 442 l 969 1042 l 1232 1042 z "},"O":{"ha":1260,"x_min":85,"x_max":1218,"o":"m 669 1079 q 1066 931 914 1079 q 1218 544 1218 783 q 1058 127 1218 290 q 649 -36 897 -36 q 243 116 401 -36 q 85 507 85 268 q 251 916 85 753 q 669 1079 418 1079 m 664 829 q 443 739 532 829 q 354 514 354 649 q 437 299 354 383 q 646 214 519 214 q 863 302 776 214 q 949 525 949 390 q 868 743 949 657 q 664 829 788 829 z "},"P":{"ha":939,"x_min":76,"x_max":943,"o":"m 204 1042 l 556 1042 q 824 979 736 1042 q 943 721 943 894 q 836 446 943 558 q 706 363 781 388 q 511 339 632 339 l 383 339 l 340 0 l 76 0 l 204 1042 m 442 833 l 410 568 l 493 568 q 672 711 672 568 q 635 805 672 776 q 515 833 599 833 l 442 833 z "},"Q":{"ha":1260,"x_min":85,"x_max":1218,"o":"m 1046 124 l 1111 35 l 938 -85 l 865 13 q 764 -12 810 -6 q 650 -21 713 -21 q 242 126 399 -21 q 85 508 85 272 q 250 908 85 751 q 674 1064 415 1064 q 1068 921 918 1064 q 1218 546 1218 778 q 1172 308 1218 418 q 1046 124 1133 217 m 785 471 l 882 333 q 931 418 915 376 q 949 522 949 467 q 869 733 949 653 q 663 814 790 814 q 441 729 528 814 q 354 514 354 644 q 435 308 354 388 q 647 229 517 229 q 708 235 668 229 l 618 351 l 785 471 z "},"R":{"ha":1008,"x_min":76,"x_max":946,"o":"m 690 404 l 946 0 l 639 0 l 390 413 l 340 0 l 76 0 l 204 1042 l 543 1042 q 911 725 911 1042 q 819 479 911 565 q 690 404 778 440 m 442 818 l 408 581 l 456 581 q 591 617 539 581 q 643 713 643 653 q 492 818 643 818 l 442 818 z "},"S":{"ha":829,"x_min":18,"x_max":819,"o":"m 819 967 l 704 767 q 521 844 600 844 q 436 819 468 844 q 404 753 404 794 q 414 713 404 731 q 536 629 433 678 q 717 503 667 568 q 767 336 767 439 q 656 79 767 179 q 369 -21 544 -21 q 199 4 275 -21 q 18 94 122 29 l 136 294 q 357 208 263 208 q 458 238 419 208 q 496 314 496 267 q 472 372 496 349 q 375 432 447 396 q 184 566 235 503 q 133 735 133 629 q 242 969 133 876 q 517 1063 351 1063 q 819 967 671 1063 z "},"T":{"ha":732,"x_min":71,"x_max":806,"o":"m 558 813 l 458 0 l 194 0 l 296 813 l 71 813 l 99 1042 l 806 1042 l 778 813 l 558 813 z "},"U":{"ha":1136,"x_min":118,"x_max":1101,"o":"m 1101 1042 l 1028 439 q 984 219 1010 292 q 908 97 958 147 q 554 -21 788 -21 q 235 74 351 -21 q 118 332 118 168 q 131 479 118 378 l 200 1042 l 463 1042 l 393 479 q 389 400 389 446 q 568 229 389 229 q 707 278 663 229 q 765 447 751 328 l 838 1042 l 1101 1042 z "},"V":{"ha":1054,"x_min":85,"x_max":1139,"o":"m 1139 1042 l 581 0 l 357 0 l 85 1042 l 365 1042 l 485 567 q 517 376 510 469 q 536 431 524 397 q 576 519 549 464 l 843 1042 l 1139 1042 z "},"W":{"ha":1572,"x_min":85,"x_max":1657,"o":"m 1657 1042 l 1207 0 l 911 0 l 840 415 q 825 529 831 475 q 818 685 818 603 q 731 436 779 554 l 553 0 l 271 0 l 85 1042 l 350 1042 l 417 651 q 438 510 431 571 q 453 308 446 439 q 497 453 486 424 l 735 1042 l 985 1042 l 1061 594 q 1076 485 1071 539 q 1090 308 1082 432 q 1142 464 1119 410 l 1174 542 l 1371 1042 l 1657 1042 z "},"X":{"ha":1149,"x_min":-6,"x_max":1172,"o":"m 760 533 l 1083 0 l 779 0 l 685 156 q 646 228 675 172 q 588 353 614 290 l 563 313 q 485 203 529 258 l 322 0 l -6 0 l 449 549 l 151 1042 l 457 1042 l 526 921 q 565 848 538 901 q 621 728 592 794 q 647 768 632 744 q 726 879 690 833 l 853 1042 l 1172 1042 l 760 533 z "},"Y":{"ha":972,"x_min":74,"x_max":1057,"o":"m 601 456 l 544 0 l 282 0 l 339 464 l 74 1042 l 367 1042 l 467 806 q 506 699 488 756 q 521 728 511 711 q 557 783 542 768 l 736 1042 l 1057 1042 l 601 456 z "},"Z":{"ha":1044,"x_min":31,"x_max":1050,"o":"m 960 229 l 932 0 l 31 0 l 594 813 l 185 813 l 213 1042 l 1050 1042 l 493 229 l 960 229 z "},"[":{"ha":325,"x_min":40,"x_max":379,"o":"m 238 1000 l 238 -93 l 379 -93 l 379 -239 l 40 -239 l 40 1146 l 379 1146 l 379 1000 l 238 1000 z "},"\\":{"ha":1164,"x_min":175,"x_max":1004,"o":"m 435 1222 l 1004 -160 l 744 -160 l 175 1222 l 435 1222 z "},"]":{"ha":325,"x_min":-33,"x_max":306,"o":"m 108 -93 l 108 999 l -33 999 l -33 1146 l 306 1146 l 306 -239 l -33 -239 l -33 -93 l 108 -93 z "},"^":{"ha":776,"x_min":26,"x_max":788,"o":"m 285 526 l 26 526 l 243 1050 l 571 1050 l 788 526 l 531 526 l 407 850 l 285 526 z "},"_":{"ha":782,"x_min":19,"x_max":800,"o":"m 19 -76 l 800 -76 l 800 -247 l 19 -247 l 19 -76 z "},"`":{"ha":804,"x_min":211,"x_max":567,"o":"m 211 1024 l 371 1138 l 567 897 l 453 813 l 211 1024 z "},"a":{"ha":960,"x_min":50,"x_max":903,"o":"m 903 703 l 817 0 l 560 0 l 578 76 q 540 44 556 57 q 340 -21 454 -21 q 129 69 208 -21 q 50 311 50 160 q 154 607 50 490 q 418 724 258 724 q 546 699 489 724 q 644 622 589 679 l 646 703 l 903 703 m 615 369 q 579 480 615 440 q 478 519 543 519 q 360 465 407 519 q 313 331 313 411 q 351 223 313 263 q 453 183 389 183 q 569 237 522 183 q 615 369 615 290 z "},"b":{"ha":963,"x_min":47,"x_max":907,"o":"m 432 1042 l 379 615 q 461 681 424 658 q 618 724 533 724 q 826 630 746 724 q 907 388 907 536 q 806 94 907 208 q 547 -21 706 -21 q 410 8 468 -21 q 308 94 360 33 l 304 0 l 47 0 l 175 1042 l 432 1042 m 644 369 q 608 480 644 440 q 507 519 572 519 q 389 465 436 519 q 342 331 342 411 q 380 223 342 263 q 482 183 418 183 q 598 237 551 183 q 644 369 644 290 z "},"c":{"ha":657,"x_min":47,"x_max":644,"o":"m 644 675 l 618 456 q 475 519 549 519 q 356 467 403 519 q 310 335 310 415 q 349 224 310 265 q 453 183 388 183 q 592 238 517 183 l 564 18 q 381 -21 453 -21 q 141 78 235 -21 q 47 329 47 176 q 156 613 47 501 q 433 724 265 724 q 532 714 485 724 q 644 675 588 703 z "},"d":{"ha":933,"x_min":46,"x_max":939,"o":"m 939 1042 l 813 0 l 556 0 l 575 83 q 535 49 560 69 q 331 -21 446 -21 q 124 67 203 -21 q 46 299 46 156 q 148 601 46 479 q 400 724 250 724 q 515 702 460 724 q 631 613 569 681 l 682 1042 l 939 1042 m 611 369 q 575 480 611 440 q 474 519 539 519 q 356 465 403 519 q 308 331 308 411 q 346 223 308 263 q 447 183 383 183 q 565 237 518 183 q 611 369 611 290 z "},"e":{"ha":871,"x_min":49,"x_max":818,"o":"m 293 299 q 415 161 293 161 q 514 233 500 161 l 794 233 q 697 75 756 128 q 410 -21 594 -21 q 144 71 240 -21 q 49 324 49 163 q 163 613 49 501 q 460 724 276 724 q 723 628 628 724 q 818 363 818 532 q 814 299 818 347 l 293 299 m 554 446 q 439 554 546 554 q 371 536 406 554 q 310 446 325 513 l 554 446 z "},"f":{"ha":574,"x_min":47,"x_max":650,"o":"m 413 504 l 351 0 l 93 0 l 156 504 l 47 504 l 71 703 l 179 703 l 186 749 q 274 960 208 894 q 488 1042 356 1042 q 542 1039 522 1042 q 650 1008 593 1032 l 624 788 q 538 822 579 822 q 438 703 453 822 l 613 703 l 588 504 l 413 504 z "},"g":{"ha":978,"x_min":38,"x_max":921,"o":"m 921 703 l 846 85 q 800 -142 829 -53 q 413 -367 726 -367 q 129 -281 224 -367 q 67 -197 86 -242 q 38 -65 49 -151 l 283 -65 q 415 -161 296 -161 q 528 -122 486 -161 q 574 -1 563 -90 l 583 74 q 549 40 560 50 q 378 -21 479 -21 q 154 74 238 -21 q 71 328 71 168 q 169 613 71 501 q 422 724 268 724 q 543 700 489 724 q 660 601 603 674 l 664 703 l 921 703 m 625 368 q 588 479 625 439 q 488 519 551 519 q 376 469 419 519 q 333 340 333 418 q 372 226 333 269 q 475 183 411 183 q 583 235 542 183 q 625 368 625 286 z "},"h":{"ha":917,"x_min":47,"x_max":839,"o":"m 432 1042 l 383 640 q 433 675 401 653 q 613 724 513 724 q 839 476 839 724 q 829 358 839 439 l 786 0 l 528 0 l 563 282 q 569 329 568 324 q 574 397 574 367 q 479 508 574 508 q 395 476 431 508 q 346 333 360 443 l 304 0 l 47 0 l 175 1042 l 432 1042 z "},"i":{"ha":447,"x_min":47,"x_max":439,"o":"m 390 703 l 304 0 l 47 0 l 133 703 l 390 703 m 439 903 q 394 790 439 836 q 286 744 350 744 q 178 790 222 744 q 133 901 133 836 q 180 1009 133 964 q 290 1054 226 1054 q 394 1009 350 1054 q 439 903 439 964 z "},"j":{"ha":451,"x_min":11,"x_max":443,"o":"m 401 703 l 268 -387 l 11 -387 l 144 703 l 401 703 m 443 903 q 399 790 443 836 q 290 744 354 744 q 183 791 228 744 q 138 901 138 838 q 184 1009 138 964 q 294 1054 231 1054 q 399 1009 354 1054 q 443 903 443 964 z "},"k":{"ha":929,"x_min":47,"x_max":931,"o":"m 432 1042 l 360 451 l 583 703 l 908 703 l 603 382 l 931 0 l 615 0 l 513 118 q 453 188 492 142 q 344 329 415 235 l 304 0 l 47 0 l 175 1042 l 432 1042 z "},"l":{"ha":426,"x_min":47,"x_max":432,"o":"m 432 1042 l 304 0 l 47 0 l 175 1042 l 432 1042 z "},"m":{"ha":1374,"x_min":47,"x_max":1294,"o":"m 390 703 l 371 610 q 442 675 413 656 q 611 724 514 724 q 761 676 707 724 q 814 603 788 653 q 893 671 861 650 q 1074 724 974 724 q 1235 668 1175 724 q 1294 519 1294 613 q 1285 407 1294 485 l 1281 369 l 1235 0 l 978 0 l 1021 343 q 1026 417 1026 388 q 940 508 1026 508 q 854 473 888 508 q 808 335 821 438 l 767 0 l 510 0 l 554 367 q 558 426 558 401 q 475 508 558 508 q 346 335 368 508 l 304 0 l 47 0 l 133 703 l 390 703 z "},"n":{"ha":921,"x_min":47,"x_max":843,"o":"m 390 703 l 369 611 q 463 683 426 663 q 622 724 533 724 q 785 669 728 724 q 843 511 843 614 q 835 396 843 464 l 786 0 l 529 0 l 567 310 q 574 397 574 367 q 479 508 574 508 q 385 463 417 508 q 343 317 356 422 l 304 0 l 47 0 l 133 703 l 390 703 z "},"o":{"ha":936,"x_min":47,"x_max":878,"o":"m 878 368 q 764 87 878 194 q 465 -21 650 -21 q 163 81 279 -21 q 47 349 47 183 q 167 618 47 513 q 474 724 288 724 q 767 626 656 724 q 878 368 878 528 m 615 369 q 579 480 615 440 q 478 519 543 519 q 358 465 406 519 q 311 331 311 411 q 349 223 311 263 q 451 183 388 183 q 569 237 522 183 q 615 369 615 290 z "},"p":{"ha":967,"x_min":11,"x_max":911,"o":"m 399 703 l 379 614 q 624 724 500 724 q 834 633 757 724 q 911 385 911 542 q 820 90 911 201 q 579 -21 729 -21 q 328 121 425 -21 l 268 -364 l 11 -364 l 142 703 l 399 703 m 649 369 q 613 480 649 440 q 511 519 576 519 q 393 465 440 519 q 346 331 346 411 q 383 223 346 263 q 485 183 421 183 q 602 237 556 183 q 649 369 649 290 z "},"q":{"ha":956,"x_min":46,"x_max":899,"o":"m 899 703 l 768 -364 l 511 -364 l 563 65 q 529 38 549 53 q 350 -21 456 -21 q 129 73 213 -21 q 46 321 46 167 q 144 613 46 501 q 401 724 242 724 q 523 704 468 724 q 640 625 578 685 l 640 703 l 899 703 m 608 371 q 572 480 608 440 q 472 519 536 519 q 356 465 403 519 q 310 331 310 411 q 347 223 310 263 q 447 183 383 183 q 563 237 517 183 q 608 371 608 290 z "},"r":{"ha":635,"x_min":47,"x_max":654,"o":"m 390 703 l 371 608 q 468 678 428 660 q 603 703 525 703 q 654 701 632 703 l 624 461 q 508 492 568 492 q 400 457 439 492 q 368 413 381 439 q 342 299 351 376 l 304 0 l 47 0 l 133 703 l 390 703 z "},"s":{"ha":713,"x_min":14,"x_max":669,"o":"m 669 654 l 608 476 q 438 538 510 538 q 349 494 349 538 q 390 460 349 471 l 474 438 q 660 240 660 388 q 572 50 660 121 q 335 -21 483 -21 q 14 86 178 -21 l 107 257 q 325 175 233 175 q 421 224 421 175 q 381 261 421 251 l 297 281 q 110 485 110 324 q 192 660 110 594 q 410 726 274 726 q 669 654 533 726 z "},"t":{"ha":556,"x_min":36,"x_max":567,"o":"m 404 504 l 343 0 l 85 0 l 147 504 l 36 504 l 61 703 l 171 703 l 199 928 l 456 928 l 429 703 l 567 703 l 542 504 l 404 504 z "},"u":{"ha":931,"x_min":79,"x_max":875,"o":"m 875 703 l 829 332 q 726 64 804 132 q 428 -21 629 -21 q 170 51 261 -21 q 79 256 79 124 q 86 351 79 294 l 129 703 l 388 703 l 346 368 q 339 286 339 313 q 443 194 339 194 q 533 227 503 194 q 572 336 563 260 l 617 703 l 875 703 z "},"v":{"ha":900,"x_min":21,"x_max":939,"o":"m 939 703 l 468 0 l 293 0 l 21 703 l 289 703 l 368 489 q 388 428 375 469 q 418 314 396 400 l 440 358 q 519 497 482 439 l 653 703 l 939 703 z "},"w":{"ha":1290,"x_min":21,"x_max":1329,"o":"m 1329 703 l 926 0 l 743 0 l 674 251 q 661 303 668 272 q 643 408 651 344 q 635 386 640 399 q 629 371 631 374 q 579 264 611 329 l 436 0 l 249 0 l 21 703 l 282 703 l 351 485 q 369 422 360 460 q 392 322 376 397 q 460 474 417 393 l 583 703 l 756 703 l 822 490 q 842 425 835 450 q 861 338 853 385 q 876 376 867 353 q 918 461 897 424 l 1054 703 l 1329 703 z "},"x":{"ha":967,"x_min":-42,"x_max":975,"o":"m 643 364 l 924 0 l 604 0 l 538 94 q 510 135 526 111 q 468 204 486 169 q 443 172 458 192 q 369 86 404 122 l 288 0 l -42 0 l 318 372 l 65 703 l 386 703 l 439 621 q 460 588 447 610 q 494 522 474 565 q 542 590 525 571 l 568 621 l 640 703 l 975 703 l 643 364 z "},"y":{"ha":928,"x_min":21,"x_max":967,"o":"m 967 703 l 310 -364 l 21 -364 l 275 56 l 28 703 l 314 703 l 453 342 l 674 703 l 967 703 z "},"z":{"ha":913,"x_min":3,"x_max":899,"o":"m 810 200 l 778 0 l 3 0 l 433 504 l 129 504 l 161 703 l 899 703 l 472 200 l 810 200 z "},"{":{"ha":428,"x_min":46,"x_max":456,"o":"m 238 453 q 313 374 293 417 q 332 256 332 331 l 332 24 q 374 -61 332 -51 q 426 -65 392 -65 l 456 -65 l 456 -242 l 339 -244 q 180 -193 228 -244 q 132 -19 132 -142 l 132 242 q 113 336 132 306 q 46 376 93 367 l 46 546 q 125 617 117 560 l 131 653 l 132 665 l 132 926 q 180 1099 132 1047 q 338 1151 228 1151 l 354 1151 l 404 1149 l 456 1147 l 456 971 q 439 972 447 971 q 428 972 431 972 q 336 933 347 972 q 332 882 332 917 l 332 650 q 313 532 332 585 q 238 453 299 494 z "},"|":{"ha":778,"x_min":308,"x_max":508,"o":"m 308 1172 l 508 1172 l 508 -390 l 308 -390 l 308 1172 z "},"}":{"ha":429,"x_min":-6,"x_max":406,"o":"m 213 453 q 138 533 157 490 q 118 650 118 575 l 118 882 q 82 967 118 954 q 24 972 64 972 q -6 971 10 972 l -6 1147 l 46 1149 l 96 1151 l 113 1151 q 271 1099 224 1151 q 318 926 318 1047 l 318 665 q 338 571 318 601 q 406 531 357 540 l 406 361 q 338 322 358 351 q 318 242 318 293 l 318 -19 q 271 -193 318 -142 q 111 -244 224 -244 l 96 -244 l -6 -242 l -6 -65 l 24 -65 q 113 -29 103 -65 q 118 24 118 -12 l 118 257 q 138 374 118 322 q 213 453 151 411 z "},"~":{"ha":1042,"x_min":160,"x_max":919,"o":"m 269 876 l 160 949 q 172 976 164 958 q 190 1018 181 994 q 394 1165 260 1165 q 558 1124 446 1165 l 625 1099 q 693 1086 660 1086 q 771 1117 739 1086 q 806 1168 783 1128 l 919 1101 q 846 976 879 1017 q 672 894 779 894 q 513 936 626 894 q 440 961 485 947 q 385 972 408 972 q 301 932 333 972 q 269 876 294 924 z "},"Ä":{"ha":1086,"x_min":-22,"x_max":1043,"o":"m 953 1267 q 915 1173 953 1211 q 825 1135 878 1135 q 728 1174 768 1135 q 689 1268 689 1213 q 728 1359 689 1321 q 822 1397 767 1397 q 914 1358 875 1397 q 953 1267 953 1319 m 622 1269 q 585 1174 622 1213 q 492 1136 547 1136 q 397 1174 435 1136 q 358 1268 358 1213 q 397 1362 358 1324 q 490 1400 435 1400 q 583 1361 544 1400 q 622 1269 622 1322 m 357 190 l 269 0 l -22 0 l 493 1042 l 790 1042 l 1043 0 l 765 0 l 719 190 l 357 190 m 454 399 l 667 399 l 628 581 q 613 650 621 611 q 599 738 608 674 q 586 701 594 724 q 551 614 571 656 l 454 399 z "},"Å":{"ha":1086,"x_min":-22,"x_max":1043,"o":"m 444 1272 q 502 1390 444 1347 q 660 1432 560 1432 q 810 1389 754 1432 q 867 1274 867 1346 q 810 1158 867 1200 q 656 1115 754 1115 q 501 1158 557 1115 q 444 1272 444 1200 m 575 1274 q 656 1214 575 1214 q 736 1272 736 1214 q 657 1333 736 1333 q 575 1274 575 1333 m 357 190 l 269 0 l -22 0 l 493 1042 l 790 1042 l 1043 0 l 765 0 l 719 190 l 357 190 m 454 399 l 667 399 l 628 581 q 613 650 621 611 q 599 738 608 674 q 586 701 594 724 q 551 614 571 656 l 454 399 z "},"Ç":{"ha":958,"x_min":85,"x_max":965,"o":"m 671 -19 l 660 -100 l 453 -100 l 464 -4 q 188 174 290 40 q 85 493 85 308 q 249 897 85 733 q 653 1061 414 1061 q 903 1007 775 1061 q 965 960 965 981 l 965 956 l 940 753 q 931 725 938 725 q 921 729 928 725 l 906 742 q 803 792 868 772 q 681 813 739 813 q 446 727 538 813 q 354 507 354 642 q 435 306 354 382 q 650 229 517 229 q 867 290 786 229 q 876 294 872 294 q 882 288 882 294 l 882 272 l 853 43 q 825 19 851 29 l 807 13 q 671 -19 735 -15 z "},"É":{"ha":764,"x_min":76,"x_max":775,"o":"m 775 1042 l 747 813 l 440 813 l 418 633 l 714 633 l 686 404 l 389 404 l 368 229 l 688 229 l 658 0 l 76 0 l 204 1042 l 296 1042 l 326 1085 l 715 1085 l 683 1042 l 775 1042 z "},"Ñ":{"ha":1268,"x_min":76,"x_max":1232,"o":"m 1079 1403 q 1038 1231 1067 1289 q 889 1136 990 1136 q 775 1168 840 1136 l 713 1199 q 647 1219 669 1219 q 592 1142 597 1219 l 414 1142 q 458 1300 433 1247 q 618 1397 504 1397 q 768 1350 678 1397 q 846 1322 821 1322 q 907 1403 901 1322 l 1079 1403 m 1232 1042 l 1104 0 l 815 0 l 538 467 q 493 549 524 490 q 410 725 447 638 l 410 678 q 399 481 410 572 l 340 0 l 76 0 l 204 1042 l 489 1042 l 892 336 q 893 379 892 363 q 904 515 894 442 l 969 1042 l 1232 1042 z "},"Ö":{"ha":1261,"x_min":85,"x_max":1219,"o":"m 1219 574 l 1219 554 q 1064 138 1219 296 q 653 -21 908 -21 q 242 126 400 -21 q 85 507 85 272 q 250 907 85 751 q 675 1063 415 1063 q 1066 926 913 1063 q 1219 574 1219 790 m 1043 1267 q 1005 1173 1043 1211 q 914 1135 967 1135 q 819 1174 858 1135 q 779 1268 779 1213 q 817 1359 779 1321 q 911 1397 856 1397 q 1003 1358 964 1397 q 1043 1267 1043 1319 m 711 1269 q 674 1174 711 1213 q 582 1136 638 1136 q 486 1174 525 1136 q 447 1268 447 1213 q 485 1362 447 1324 q 579 1400 524 1400 q 672 1361 633 1400 q 711 1269 711 1322 m 949 544 q 864 741 940 669 q 664 813 788 813 q 442 728 529 813 q 356 515 356 644 q 437 308 356 388 q 649 229 518 229 q 865 312 781 229 q 950 521 950 394 q 949 544 950 525 z "},"Ü":{"ha":1138,"x_min":118,"x_max":1101,"o":"m 1101 1042 l 1028 439 q 985 217 1010 289 q 910 96 960 146 q 553 -21 792 -21 q 250 60 358 -21 q 118 336 118 158 q 131 479 118 376 l 199 1042 l 463 1042 l 394 479 q 388 393 388 422 q 561 229 388 229 q 708 282 661 229 q 765 449 751 329 l 838 1042 l 1101 1042 m 976 1267 q 938 1173 976 1211 q 847 1135 900 1135 q 752 1174 792 1135 q 713 1268 713 1213 q 751 1359 713 1321 q 844 1397 789 1397 q 937 1358 897 1397 q 976 1267 976 1319 m 644 1269 q 607 1174 644 1213 q 515 1135 569 1135 q 419 1173 458 1135 q 381 1268 381 1211 q 419 1362 381 1324 q 513 1400 457 1400 q 606 1361 567 1400 q 644 1269 644 1322 z "},"á":{"ha":960,"x_min":50,"x_max":903,"o":"m 825 1099 l 618 829 l 443 829 l 568 1099 l 825 1099 m 903 703 l 817 0 l 560 0 l 578 76 q 540 44 556 57 q 340 -21 454 -21 q 129 69 208 -21 q 50 311 50 160 q 154 607 50 490 q 418 724 258 724 q 546 699 489 724 q 644 622 589 679 l 646 703 l 903 703 m 615 369 q 579 480 615 440 q 478 519 543 519 q 360 465 407 519 q 313 331 313 411 q 351 223 313 263 q 453 183 389 183 q 569 237 522 183 q 615 369 615 290 z "},"à":{"ha":960,"x_min":50,"x_max":903,"o":"m 308 1099 l 565 1099 l 625 829 l 449 829 l 308 1099 m 903 703 l 817 0 l 560 0 l 578 76 q 540 44 556 57 q 340 -21 454 -21 q 129 69 208 -21 q 50 311 50 160 q 154 607 50 490 q 418 724 258 724 q 546 699 489 724 q 644 622 589 679 l 646 703 l 903 703 m 615 369 q 579 480 615 440 q 478 519 543 519 q 360 465 407 519 q 313 331 313 411 q 351 223 313 263 q 453 183 389 183 q 569 237 522 183 q 615 369 615 290 z "},"â":{"ha":960,"x_min":50,"x_max":903,"o":"m 553 964 l 465 829 l 260 829 l 432 1101 l 717 1101 l 808 829 l 610 829 l 553 964 m 903 703 l 817 0 l 560 0 l 578 76 q 540 44 556 57 q 340 -21 454 -21 q 129 69 208 -21 q 50 311 50 160 q 154 607 50 490 q 418 724 258 724 q 546 699 489 724 q 644 622 589 679 l 646 703 l 903 703 m 615 369 q 579 480 615 440 q 478 519 543 519 q 360 465 407 519 q 313 331 313 411 q 351 223 313 263 q 453 183 389 183 q 569 237 522 183 q 615 369 615 290 z "},"ä":{"ha":960,"x_min":50,"x_max":903,"o":"m 833 956 q 798 866 833 903 q 711 829 763 829 q 619 866 657 829 q 582 956 582 903 q 619 1044 582 1007 q 708 1081 656 1081 q 796 1043 758 1081 q 833 956 833 1006 m 518 957 q 483 866 518 903 q 394 829 447 829 q 303 866 340 829 q 267 956 267 903 q 303 1045 267 1008 q 392 1082 339 1082 q 481 1045 443 1082 q 518 957 518 1008 m 903 703 l 817 0 l 560 0 l 578 76 q 540 44 556 57 q 340 -21 454 -21 q 129 69 208 -21 q 50 311 50 160 q 154 607 50 490 q 418 724 258 724 q 546 699 489 724 q 644 622 589 679 l 646 703 l 903 703 m 615 369 q 579 480 615 440 q 478 519 543 519 q 360 465 407 519 q 313 331 313 411 q 351 223 313 263 q 453 183 389 183 q 569 237 522 183 q 615 369 615 290 z "},"ã":{"ha":960,"x_min":50,"x_max":903,"o":"m 865 1083 q 826 917 856 975 q 686 829 783 829 q 625 838 651 829 q 518 889 599 847 q 456 910 478 910 q 403 835 407 910 l 233 835 l 240 874 q 297 1021 257 974 q 426 1079 346 1079 q 569 1035 485 1079 q 644 1008 619 1008 q 703 1083 697 1008 l 865 1083 m 903 703 l 817 0 l 560 0 l 578 76 q 540 44 556 57 q 340 -21 454 -21 q 129 69 208 -21 q 50 311 50 160 q 154 607 50 490 q 418 724 258 724 q 546 699 489 724 q 644 622 589 679 l 646 703 l 903 703 m 615 369 q 579 480 615 440 q 478 519 543 519 q 360 465 407 519 q 313 331 313 411 q 351 223 313 263 q 453 183 389 183 q 569 237 522 183 q 615 369 615 290 z "},"å":{"ha":960,"x_min":50,"x_max":903,"o":"m 347 983 q 403 1097 347 1056 q 556 1139 458 1139 q 703 1097 649 1139 q 758 983 758 1056 q 703 870 758 911 q 553 829 649 829 q 403 870 458 829 q 347 983 347 911 m 475 983 q 553 926 475 926 q 631 983 631 926 q 553 1042 631 1042 q 475 983 475 1042 m 903 703 l 817 0 l 560 0 l 578 76 q 540 44 556 57 q 340 -21 454 -21 q 129 69 208 -21 q 50 311 50 160 q 154 607 50 490 q 418 724 258 724 q 546 699 489 724 q 644 622 589 679 l 646 703 l 903 703 m 615 369 q 579 480 615 440 q 478 519 543 519 q 360 465 407 519 q 313 331 313 411 q 351 223 313 263 q 453 183 389 183 q 569 237 522 183 q 615 369 615 290 z "},"ç":{"ha":657,"x_min":47,"x_max":644,"o":"m 304 -15 q 221 17 254 -1 q 47 329 47 113 q 156 613 47 501 q 433 724 265 724 q 532 714 485 724 q 644 675 588 703 l 618 456 q 475 519 549 519 q 356 467 403 519 q 310 335 310 415 q 349 224 310 265 q 453 183 388 183 q 592 238 517 183 l 564 18 q 467 -11 531 6 l 458 -72 l 297 -72 l 304 -15 z "},"é":{"ha":871,"x_min":49,"x_max":818,"o":"m 782 1099 l 575 829 l 400 829 l 525 1099 l 782 1099 m 293 299 q 415 161 293 161 q 514 233 500 161 l 794 233 q 697 75 756 128 q 410 -21 594 -21 q 144 71 240 -21 q 49 324 49 163 q 163 613 49 501 q 460 724 276 724 q 723 628 628 724 q 818 363 818 532 q 814 299 818 347 l 293 299 m 554 446 q 439 554 546 554 q 371 536 406 554 q 310 446 325 513 l 554 446 z "},"è":{"ha":871,"x_min":49,"x_max":818,"o":"m 265 1099 l 522 1099 l 582 829 l 406 829 l 265 1099 m 293 299 q 415 161 293 161 q 514 233 500 161 l 794 233 q 697 75 756 128 q 410 -21 594 -21 q 144 71 240 -21 q 49 324 49 163 q 163 613 49 501 q 460 724 276 724 q 723 628 628 724 q 818 363 818 532 q 814 299 818 347 l 293 299 m 554 446 q 439 554 546 554 q 371 536 406 554 q 310 446 325 513 l 554 446 z "},"ê":{"ha":871,"x_min":49,"x_max":818,"o":"m 510 964 l 422 829 l 215 829 l 389 1101 l 674 1101 l 765 829 l 567 829 l 510 964 m 293 299 q 415 161 293 161 q 514 233 500 161 l 794 233 q 697 75 756 128 q 410 -21 594 -21 q 144 71 240 -21 q 49 324 49 163 q 163 613 49 501 q 460 724 276 724 q 723 628 628 724 q 818 363 818 532 q 814 299 818 347 l 293 299 m 554 446 q 439 554 546 554 q 371 536 406 554 q 310 446 325 513 l 554 446 z "},"ë":{"ha":871,"x_min":49,"x_max":818,"o":"m 790 956 q 754 866 790 903 q 668 829 718 829 q 576 866 614 829 q 539 956 539 903 q 576 1044 539 1008 q 664 1081 613 1081 q 753 1044 715 1081 q 790 956 790 1007 m 475 957 q 440 866 475 903 q 351 829 404 829 q 260 866 297 829 q 224 956 224 903 q 260 1045 224 1008 q 349 1082 296 1082 q 438 1045 400 1082 q 475 957 475 1008 m 293 299 q 415 161 293 161 q 514 233 500 161 l 794 233 q 697 75 756 128 q 410 -21 594 -21 q 144 71 240 -21 q 49 324 49 163 q 163 613 49 501 q 460 724 276 724 q 723 628 628 724 q 818 363 818 532 q 814 299 818 347 l 293 299 m 554 446 q 439 554 546 554 q 371 536 406 554 q 310 446 325 513 l 554 446 z "},"í":{"ha":454,"x_min":47,"x_max":568,"o":"m 390 703 l 304 0 l 47 0 l 133 703 l 390 703 m 568 1099 l 361 829 l 186 829 l 311 1099 l 568 1099 z "},"ì":{"ha":382,"x_min":7,"x_max":350,"o":"m 350 703 l 264 0 l 7 0 l 93 703 l 350 703 m 11 1099 l 268 1099 l 328 829 l 151 829 l 11 1099 z "},"î":{"ha":457,"x_min":11,"x_max":560,"o":"m 399 703 l 313 0 l 56 0 l 142 703 l 399 703 m 304 964 l 217 829 l 11 829 l 183 1101 l 468 1101 l 560 829 l 361 829 l 304 964 z "},"ï":{"ha":439,"x_min":7,"x_max":553,"o":"m 378 703 l 292 0 l 33 0 l 119 703 l 378 703 m 553 956 q 517 866 553 903 q 431 829 481 829 q 339 866 376 829 q 301 956 301 903 q 338 1044 301 1008 q 426 1081 375 1081 q 515 1043 478 1081 q 553 956 553 1006 m 258 957 q 223 866 258 903 q 135 829 188 829 q 44 866 81 829 q 7 956 7 903 q 44 1045 7 1008 q 132 1082 81 1082 q 221 1045 183 1082 q 258 957 258 1008 z "},"ñ":{"ha":885,"x_min":47,"x_max":849,"o":"m 849 1083 q 810 917 839 975 q 669 829 767 829 q 607 839 635 829 q 501 889 588 846 q 439 910 460 910 q 386 835 390 910 l 217 835 l 224 874 q 281 1021 240 974 q 411 1079 329 1079 q 553 1035 469 1079 q 628 1008 603 1008 q 686 1083 681 1008 l 849 1083 m 390 703 l 369 611 q 463 683 426 663 q 622 724 533 724 q 785 669 728 724 q 843 511 843 614 q 835 396 843 464 l 786 0 l 529 0 l 567 310 q 574 397 574 367 q 479 508 574 508 q 385 463 417 508 q 343 317 356 422 l 304 0 l 47 0 l 133 703 l 390 703 z "},"ó":{"ha":936,"x_min":47,"x_max":878,"o":"m 813 1099 l 606 829 l 429 829 l 554 1099 l 813 1099 m 878 368 q 764 87 878 194 q 465 -21 650 -21 q 163 81 279 -21 q 47 349 47 183 q 167 618 47 513 q 474 724 288 724 q 767 626 656 724 q 878 368 878 528 m 615 369 q 579 480 615 440 q 478 519 543 519 q 358 465 406 519 q 311 331 311 411 q 349 223 311 263 q 451 183 388 183 q 569 237 522 183 q 615 369 615 290 z "},"ò":{"ha":936,"x_min":47,"x_max":878,"o":"m 296 1099 l 553 1099 l 613 829 l 436 829 l 296 1099 m 878 368 q 764 87 878 194 q 465 -21 650 -21 q 163 81 279 -21 q 47 349 47 183 q 167 618 47 513 q 474 724 288 724 q 767 626 656 724 q 878 368 878 528 m 615 369 q 579 480 615 440 q 478 519 543 519 q 358 465 406 519 q 311 331 311 411 q 349 223 311 263 q 451 183 388 183 q 569 237 522 183 q 615 369 615 290 z "},"ô":{"ha":936,"x_min":47,"x_max":878,"o":"m 540 964 l 453 829 l 246 829 l 419 1101 l 703 1101 l 796 829 l 597 829 l 540 964 m 878 368 q 764 87 878 194 q 465 -21 650 -21 q 163 81 279 -21 q 47 349 47 183 q 167 618 47 513 q 474 724 288 724 q 767 626 656 724 q 878 368 878 528 m 615 369 q 579 480 615 440 q 478 519 543 519 q 358 465 406 519 q 311 331 311 411 q 349 223 311 263 q 451 183 388 183 q 569 237 522 183 q 615 369 615 290 z "},"ö":{"ha":936,"x_min":47,"x_max":878,"o":"m 819 956 q 784 866 819 903 q 697 829 749 829 q 607 866 644 829 q 569 956 569 903 q 606 1044 569 1008 q 694 1081 643 1081 q 783 1043 746 1081 q 819 956 819 1006 m 504 957 q 469 866 504 903 q 382 829 433 829 q 291 866 328 829 q 254 956 254 903 q 291 1045 254 1008 q 379 1082 328 1082 q 467 1045 431 1082 q 504 957 504 1008 m 878 368 q 764 87 878 194 q 465 -21 650 -21 q 163 81 279 -21 q 47 349 47 183 q 167 618 47 513 q 474 724 288 724 q 767 626 656 724 q 878 368 878 528 m 615 369 q 579 480 615 440 q 478 519 543 519 q 358 465 406 519 q 311 331 311 411 q 349 223 311 263 q 451 183 388 183 q 569 237 522 183 q 615 369 615 290 z "},"õ":{"ha":924,"x_min":47,"x_max":878,"o":"m 853 1083 q 814 917 840 971 q 674 829 771 829 q 611 839 639 829 q 504 889 583 849 q 443 910 463 910 q 390 835 394 910 l 221 835 q 228 874 222 850 q 283 1021 246 976 q 414 1079 332 1079 q 557 1035 474 1079 q 632 1008 607 1008 q 690 1083 685 1008 l 853 1083 m 878 368 q 764 87 878 194 q 465 -21 650 -21 q 163 81 279 -21 q 47 349 47 183 q 167 618 47 513 q 474 724 288 724 q 767 626 656 724 q 878 368 878 528 m 615 369 q 579 480 615 440 q 478 519 543 519 q 358 465 406 519 q 311 331 311 411 q 349 223 311 263 q 451 183 388 183 q 569 237 522 183 q 615 369 615 290 z "},"ú":{"ha":931,"x_min":79,"x_max":875,"o":"m 808 1099 l 603 829 l 426 829 l 551 1099 l 808 1099 m 875 703 l 829 332 q 726 64 804 132 q 428 -21 629 -21 q 170 51 261 -21 q 79 256 79 124 q 86 351 79 294 l 129 703 l 388 703 l 346 368 q 339 286 339 313 q 443 194 339 194 q 533 227 503 194 q 572 336 563 260 l 617 703 l 875 703 z "},"ù":{"ha":931,"x_min":79,"x_max":875,"o":"m 292 1099 l 550 1099 l 608 829 l 432 829 l 292 1099 m 875 703 l 829 332 q 726 64 804 132 q 428 -21 629 -21 q 170 51 261 -21 q 79 256 79 124 q 86 351 79 294 l 129 703 l 388 703 l 346 368 q 339 286 339 313 q 443 194 339 194 q 533 227 503 194 q 572 336 563 260 l 617 703 l 875 703 z "},"û":{"ha":931,"x_min":79,"x_max":875,"o":"m 536 964 l 449 829 l 243 829 l 417 1101 l 700 1101 l 792 829 l 593 829 l 536 964 m 875 703 l 829 332 q 726 64 804 132 q 428 -21 629 -21 q 170 51 261 -21 q 79 256 79 124 q 86 351 79 294 l 129 703 l 388 703 l 346 368 q 339 286 339 313 q 443 194 339 194 q 533 227 503 194 q 572 336 563 260 l 617 703 l 875 703 z "},"ü":{"ha":931,"x_min":79,"x_max":875,"o":"m 817 956 q 781 866 817 903 q 694 829 746 829 q 603 866 640 829 q 565 956 565 903 q 602 1044 565 1007 q 692 1081 639 1081 q 779 1044 742 1081 q 817 956 817 1007 m 501 957 q 466 866 501 903 q 378 829 431 829 q 287 866 324 829 q 250 956 250 903 q 286 1045 250 1008 q 375 1082 322 1082 q 464 1045 426 1082 q 501 957 501 1008 m 875 703 l 829 332 q 726 64 804 132 q 428 -21 629 -21 q 170 51 261 -21 q 79 256 79 124 q 86 351 79 294 l 129 703 l 388 703 l 346 368 q 339 286 339 313 q 443 194 339 194 q 533 227 503 194 q 572 336 563 260 l 617 703 l 875 703 z "},"†":{"ha":1163,"x_min":169,"x_max":1101,"o":"m 440 640 l 831 640 l 831 1042 l 1101 1042 l 1101 0 l 831 0 l 831 429 l 440 429 l 440 0 l 169 0 l 169 1042 l 440 1042 l 440 640 z "},"°":{"ha":886,"x_min":296,"x_max":713,"o":"m 296 847 q 356 996 296 935 q 504 1057 417 1057 q 651 996 590 1057 q 713 849 713 935 q 651 701 713 763 q 504 640 590 640 q 358 701 419 640 q 296 847 296 763 m 404 851 q 433 779 404 808 q 504 750 463 750 q 574 779 544 750 q 603 850 603 808 q 574 919 603 890 q 503 949 544 949 q 433 920 463 949 q 404 851 404 892 z "},"¢":{"ha":6299,"x_min":147,"x_max":6333,"o":"m 1888 1042 q 1911 1019 1907 1042 l 2118 13 q 2106 0 2118 0 l 1865 0 q 1847 14 1849 0 l 1810 160 q 1788 176 1807 176 l 1449 176 q 1421 160 1429 176 l 1351 17 q 1318 0 1343 0 l 1047 0 q 1038 11 1038 0 q 1040 22 1038 14 l 1535 1022 q 1567 1042 1544 1042 l 1888 1042 m 2267 0 q 2243 14 2243 0 q 2244 19 2243 17 l 2379 1024 q 2403 1042 2382 1042 l 2667 1042 q 2700 1022 2689 1042 l 3010 476 q 3024 461 3018 461 q 3029 482 3026 465 l 3106 1021 q 3132 1042 3108 1042 l 3378 1042 q 3396 1026 3396 1042 l 3396 1022 l 3257 17 q 3232 0 3254 0 l 2993 0 q 2960 19 2971 0 l 2619 618 q 2608 632 2611 632 q 2604 614 2607 628 l 2521 19 q 2499 0 2518 0 l 2267 0 m 3390 0 q 3379 7 3379 0 q 3382 19 3379 8 l 3874 1024 q 3906 1042 3882 1042 l 4211 1042 q 4236 1021 4232 1042 l 4446 22 q 4447 8 4447 18 q 4431 0 4447 0 l 4193 0 q 4167 19 4171 0 l 4140 154 q 4111 176 4136 176 l 3790 176 q 3761 161 3769 176 l 3686 15 q 3657 0 3678 0 l 3390 0 m 4706 1019 q 4724 1042 4708 1042 l 4986 1042 q 5000 1029 5000 1042 l 5000 1025 l 4896 250 q 4911 235 4896 235 l 5192 235 q 5206 221 5206 235 l 5206 215 l 5178 17 q 5157 0 5175 0 l 4574 0 q 4561 11 4561 0 l 4561 18 l 4706 1019 m 5950 411 q 5931 393 5931 411 l 5931 19 q 5917 0 5931 0 l 5632 0 q 5617 17 5617 0 l 5617 390 q 5599 411 5617 411 l 5229 411 q 5213 431 5213 411 l 5213 714 q 5228 731 5213 731 l 5600 731 q 5617 749 5617 731 l 5617 1069 q 5631 1083 5617 1083 l 5914 1083 q 5931 1069 5931 1083 l 5931 749 q 5946 731 5931 731 l 6318 731 q 6333 713 6333 731 l 6333 428 q 6318 411 6333 411 l 5950 411 m 953 43 q 946 14 950 19 q 858 -28 931 -10 q 710 -47 785 -47 q 303 104 460 -47 q 147 499 147 256 q 317 915 147 751 q 749 1079 488 1079 q 1101 983 953 1079 q 1114 964 1114 975 q 1110 939 1114 960 l 1074 764 q 1060 733 1067 733 q 1021 753 1053 733 q 782 817 918 817 q 549 731 639 817 q 458 508 458 644 q 538 300 458 382 q 738 218 617 218 q 965 264 868 218 q 978 268 974 268 q 982 256 982 268 q 981 235 982 244 l 953 43 m 1682 724 q 1675 738 1679 736 q 1668 728 1671 736 l 1533 422 q 1531 414 1532 419 q 1540 410 1533 410 l 1742 410 q 1756 415 1756 410 q 1753 428 1756 417 l 1682 724 m 4018 738 q 4011 750 4013 750 q 4004 738 4007 746 l 3868 431 q 3865 418 3865 422 q 3883 410 3865 410 l 4071 410 q 4085 419 4085 410 q 4083 433 4085 429 l 4018 738 z "},"£":{"ha":914,"x_min":28,"x_max":929,"o":"m 678 263 l 871 263 q 824 86 861 150 q 618 -24 760 -24 q 460 11 547 -24 l 386 40 q 289 63 331 63 q 218 0 239 63 l 28 0 q 92 167 56 107 q 147 231 117 210 q 233 268 176 251 q 258 389 258 338 q 254 436 258 401 l 90 436 l 110 594 l 235 594 q 217 738 217 674 q 317 978 217 890 q 594 1065 418 1065 q 844 985 758 1065 q 929 753 929 906 l 929 736 l 685 736 q 586 869 679 869 q 468 710 468 869 q 479 594 468 665 l 767 594 l 747 436 l 494 436 q 482 346 490 385 q 449 249 472 303 l 476 240 l 515 226 q 547 215 515 226 q 615 197 599 197 q 678 263 665 197 z "},"§":{"ha":832,"x_min":82,"x_max":761,"o":"m 729 864 l 513 864 q 511 875 513 872 q 419 981 504 981 q 358 956 383 981 q 332 899 332 932 q 339 867 332 881 q 488 776 358 829 q 689 661 632 717 q 761 483 761 590 q 742 374 761 428 q 694 297 722 319 l 606 228 l 603 222 q 668 172 603 217 q 706 111 690 157 q 721 15 721 65 q 632 -173 721 -96 q 413 -250 543 -250 q 187 -172 271 -250 q 103 44 103 -94 l 103 56 l 324 56 l 324 44 q 421 -69 324 -69 q 489 -42 461 -69 q 517 25 517 -15 q 476 104 517 75 q 360 154 447 125 q 158 257 213 203 q 82 457 82 333 q 101 567 82 515 q 226 700 129 642 l 233 704 q 167 763 233 708 q 135 822 149 778 q 121 911 121 865 q 203 1088 121 1018 q 414 1157 286 1157 q 647 1082 558 1157 q 729 876 729 1013 l 729 864 m 421 575 q 340 542 374 575 q 307 461 307 510 q 340 381 307 414 q 419 347 374 347 q 500 381 467 347 q 533 461 533 414 q 501 542 533 508 q 421 575 468 575 z "},"•":{"ha":1042,"x_min":325,"x_max":754,"o":"m 538 750 q 691 686 628 750 q 754 531 754 622 q 692 376 754 440 q 540 313 629 313 q 388 377 451 313 q 325 532 325 442 q 388 685 325 621 q 538 750 451 750 z "},"¶":{"ha":914,"x_min":75,"x_max":946,"o":"m 238 -143 l 317 501 l 299 501 q 136 572 197 501 q 75 760 75 643 q 446 1042 75 1042 l 946 1042 l 928 888 l 813 888 l 686 -143 l 517 -143 l 643 888 l 533 888 l 407 -143 l 238 -143 z "},"ß":{"ha":836,"x_min":21,"x_max":858,"o":"m 21 0 l 117 767 q 171 988 135 917 q 485 1157 256 1157 q 748 1074 650 1157 q 846 850 846 990 q 788 674 846 746 q 663 592 747 624 q 775 531 739 563 q 858 319 858 458 q 774 97 858 185 q 649 20 718 40 q 419 0 579 0 l 353 0 l 381 221 q 438 218 410 218 q 596 356 596 218 q 463 482 596 482 q 413 479 465 482 l 440 711 q 478 708 476 708 q 569 742 535 708 q 604 829 604 775 q 575 913 604 882 q 496 943 546 943 q 408 903 436 943 q 379 807 388 872 l 279 0 l 21 0 z "},"®":{"ha":1188,"x_min":53,"x_max":1135,"o":"m 590 1065 q 976 906 818 1065 q 1135 519 1135 747 q 976 136 1135 296 q 596 -24 818 -24 q 212 136 371 -24 q 53 521 53 296 q 211 905 53 744 q 590 1065 369 1065 m 601 968 q 289 838 417 968 q 161 521 161 708 q 288 205 161 336 q 594 74 415 74 q 900 205 774 74 q 1026 521 1026 336 q 901 836 1026 704 q 601 968 775 968 m 718 449 l 883 208 l 665 208 l 522 428 l 496 208 l 311 208 l 388 833 l 608 833 q 794 779 740 833 q 849 635 849 725 q 718 449 849 496 m 556 692 l 539 557 l 557 557 q 658 629 658 557 q 640 678 658 665 q 575 692 622 692 l 556 692 z "},"©":{"ha":1188,"x_min":53,"x_max":1135,"o":"m 590 1065 q 976 906 818 1065 q 1135 519 1135 747 q 976 136 1135 296 q 596 -24 818 -24 q 212 136 371 -24 q 53 521 53 296 q 211 905 53 744 q 590 1065 369 1065 m 601 968 q 289 838 417 968 q 161 521 161 708 q 288 205 161 336 q 594 74 415 74 q 900 205 774 74 q 1026 521 1026 336 q 901 836 1026 704 q 601 968 775 968 m 846 792 l 825 615 l 810 626 q 657 679 738 679 q 521 634 574 679 q 468 517 468 589 q 516 405 468 447 q 640 363 564 363 q 783 399 717 363 l 799 407 l 778 228 l 769 226 q 615 196 676 196 q 373 284 468 196 q 278 508 278 372 q 383 748 278 650 q 640 846 488 846 q 736 834 686 846 q 840 794 786 822 l 846 792 z "},"™":{"ha":1321,"x_min":64,"x_max":1306,"o":"m 378 894 l 322 449 l 143 449 l 199 894 l 64 894 l 82 1042 l 526 1042 l 510 894 l 378 894 m 1278 1042 l 1306 449 l 1126 449 l 1115 765 l 944 449 l 846 449 l 788 676 q 768 776 778 715 q 749 704 763 753 l 669 449 l 485 449 l 682 1042 l 854 1042 l 906 842 q 929 726 918 793 l 1099 1042 l 1278 1042 z "},"´":{"ha":804,"x_min":357,"x_max":713,"o":"m 713 1024 l 472 813 l 357 897 l 553 1138 l 713 1024 z "},"¨":{"ha":847,"x_min":200,"x_max":767,"o":"m 767 949 q 731 860 767 896 q 644 824 696 824 q 553 860 592 824 q 515 950 515 897 q 552 1038 515 1001 q 642 1074 589 1074 q 730 1036 693 1074 q 767 949 767 999 m 451 950 q 416 859 451 896 q 328 822 381 822 q 238 859 275 822 q 200 949 200 896 q 237 1037 200 1000 q 326 1074 274 1074 q 415 1038 378 1074 q 451 950 451 1001 z "},"Æ":{"ha":1472,"x_min":-22,"x_max":1397,"o":"m 1138 1042 l 1194 813 l 864 813 l 913 636 l 1229 636 l 1286 406 l 972 406 l 1018 229 l 1342 229 l 1397 0 l 815 0 l 769 188 l 344 188 l 254 0 l -22 0 l 483 1042 l 1138 1042 m 442 394 l 724 394 l 643 728 q 628 818 636 758 q 590 724 615 785 q 563 658 572 681 l 442 394 z "},"Ø":{"ha":929,"x_min":133,"x_max":903,"o":"m 731 813 l 404 813 l 404 639 l 701 639 l 701 410 l 404 410 l 404 0 l 133 0 l 133 1042 l 731 1042 l 731 813 m 581 131 q 627 247 581 200 q 742 294 674 294 q 856 247 810 294 q 903 133 903 200 q 856 18 903 65 q 742 -29 810 -29 q 628 18 676 -29 q 581 131 581 65 z "},"¥":{"ha":536,"x_min":11,"x_max":525,"o":"m 217 860 l 225 1026 l 369 1010 l 338 846 l 497 889 l 525 747 l 361 728 l 451 589 l 325 518 l 254 668 l 151 540 l 44 638 l 168 751 l 11 811 l 72 942 l 217 860 z "},"µ":{"ha":724,"x_min":181,"x_max":543,"o":"m 543 536 q 492 402 543 456 q 364 349 440 349 q 235 403 289 349 q 181 533 181 458 q 233 660 181 607 q 358 714 285 714 q 489 662 435 714 q 543 536 543 610 z "},"º":{"ha":1310,"x_min":97,"x_max":1213,"o":"m 500 1085 l 814 1085 l 814 543 l 996 765 l 1213 551 l 649 0 l 97 551 l 315 765 l 500 543 l 500 1085 z "},"æ":{"ha":1326,"x_min":26,"x_max":1274,"o":"m 753 310 l 753 306 q 788 199 753 238 q 885 161 822 161 q 1004 225 972 161 l 1253 225 q 1210 124 1232 158 q 1140 54 1188 89 q 883 -21 1040 -21 q 692 17 764 -21 q 618 75 653 36 q 322 -21 490 -21 q 106 41 185 -21 q 26 210 26 103 q 102 373 26 311 q 301 435 178 435 q 453 406 382 435 q 518 368 486 392 q 521 428 518 407 l 521 456 q 367 556 521 556 q 267 542 325 556 q 156 503 235 533 l 168 689 q 421 724 317 724 q 590 692 515 724 q 676 635 635 672 q 774 694 725 675 q 932 724 847 724 q 1274 333 1274 724 l 1274 310 l 753 310 m 482 208 q 367 276 482 276 q 257 208 257 276 q 288 155 257 175 q 372 135 319 135 q 482 206 482 135 l 482 208 m 776 457 l 1040 457 q 914 560 1022 560 q 776 457 803 560 z "},"ø":{"ha":2404,"x_min":131,"x_max":2438,"o":"m 131 0 l 131 1042 l 401 1042 l 899 404 l 899 1042 l 1169 1042 l 1169 0 l 899 0 l 401 636 l 401 0 l 131 0 m 1667 794 q 1972 676 1849 794 q 2096 385 2096 558 q 1973 92 2096 211 q 1671 -28 1850 -28 q 1369 92 1492 -28 q 1246 386 1246 211 q 1367 676 1246 558 q 1667 794 1489 794 m 2276 293 q 2390 247 2343 293 q 2438 132 2438 200 q 2390 18 2438 65 q 2276 -29 2343 -29 q 2161 18 2208 -29 q 2114 132 2114 65 q 2161 246 2114 199 q 2276 293 2208 293 m 1672 550 q 1557 503 1604 550 q 1510 388 1510 456 q 1557 272 1510 319 q 1671 225 1604 225 q 1785 272 1738 225 q 1832 388 1832 319 q 1785 502 1832 454 q 1672 550 1739 550 z "},"¿":{"ha":944,"x_min":28,"x_max":769,"o":"m 575 457 l 547 196 l 500 196 q 359 158 415 196 q 297 58 303 119 q 317 -16 292 14 q 388 -46 343 -46 q 494 61 472 -46 l 769 61 q 729 -64 754 -17 q 581 -210 678 -157 q 363 -264 483 -264 q 122 -179 217 -264 q 28 33 28 -94 q 135 265 28 175 q 310 358 192 313 l 321 457 l 575 457 m 449 513 q 338 559 381 513 q 303 674 296 606 q 362 789 310 742 q 482 836 414 836 q 590 789 549 836 q 625 674 632 742 q 566 560 618 607 q 449 513 514 513 z "},"¡":{"ha":1522,"x_min":218,"x_max":1304,"o":"m 1304 679 l 1304 365 l 761 365 l 983 183 l 771 -33 l 218 531 l 771 1082 l 983 864 l 761 679 l 1304 679 z "},"¬":{"ha":782,"x_min":71,"x_max":749,"o":"m 460 0 l 460 206 l 71 206 l 71 465 l 749 465 l 749 0 l 460 0 z "},"ƒ":{"ha":6893,"x_min":57,"x_max":6836,"o":"m 57 -350 l 57 1354 l 6836 1354 l 6836 -350 l 57 -350 m 2119 1019 q 2096 1042 2115 1042 l 1775 1042 q 1743 1022 1753 1042 l 1249 22 q 1246 10 1246 14 q 1257 0 1246 0 l 1526 0 q 1560 17 1551 0 l 1629 160 q 1657 176 1638 176 l 1996 176 q 2018 158 2015 176 l 2054 14 q 2074 0 2057 0 l 2314 0 q 2326 13 2326 0 l 2326 18 l 2119 1019 m 2458 14 q 2482 0 2458 0 l 2714 0 q 2736 19 2733 0 l 2819 614 q 2824 632 2822 632 q 2835 618 2828 629 l 3175 19 q 3208 0 3186 0 l 3446 0 q 3472 17 3469 0 l 3611 1026 q 3593 1042 3611 1042 l 3347 1042 q 3319 1021 3322 1042 l 3244 482 q 3238 461 3242 461 q 3225 476 3233 461 l 2914 1022 q 2881 1042 2903 1042 l 2617 1042 q 2594 1024 2597 1042 l 2458 14 m 3597 19 q 3593 7 3593 11 q 3604 0 3593 0 l 3871 0 q 3900 15 3892 0 l 3975 161 q 4004 176 3983 176 l 4325 176 q 4354 154 4350 176 l 4381 19 q 4407 0 4385 0 l 4644 0 q 4661 8 4661 0 q 4660 22 4661 18 l 4450 1021 q 4425 1042 4446 1042 l 4119 1042 q 4089 1024 4097 1042 l 3597 19 m 4939 1042 q 4921 1019 4924 1042 l 4776 11 q 4789 0 4776 0 l 5372 0 q 5393 17 5390 0 l 5421 221 q 5407 235 5421 235 l 5128 235 q 5111 250 5111 235 l 5111 253 l 5215 1029 q 5201 1042 5215 1042 l 4939 1042 m 6150 393 q 6168 411 6150 411 l 6513 411 q 6528 428 6528 411 l 6528 711 q 6513 729 6528 729 l 6164 729 q 6150 749 6150 729 l 6150 1069 q 6132 1083 6150 1083 l 5849 1083 q 5835 1069 5835 1083 l 5835 749 q 5818 729 5835 729 l 5446 729 q 5431 714 5431 729 l 5431 429 q 5447 411 5431 411 l 5817 411 q 5835 390 5835 411 l 5835 17 q 5850 0 5835 0 l 6135 0 q 6150 19 6150 0 l 6150 393 m 1318 938 q 1322 963 1322 958 q 1310 983 1322 975 q 957 1078 1165 1078 q 526 914 696 1078 q 356 499 356 750 q 512 105 356 256 q 921 -46 668 -46 q 1142 3 1061 -46 q 1161 43 1157 11 l 1189 235 q 1190 256 1190 244 q 1186 268 1190 268 q 1143 253 1196 268 q 947 218 1024 218 q 746 300 825 218 q 667 508 667 382 q 757 731 667 644 q 992 817 847 817 q 1231 753 1131 817 q 1268 733 1261 733 q 1283 764 1278 733 l 1318 938 m 1876 728 q 1883 738 1881 736 q 1890 724 1888 735 l 1961 428 q 1964 415 1964 417 q 1950 410 1964 410 l 1749 410 q 1739 414 1739 410 l 1742 422 l 1876 728 m 4218 738 q 4226 750 4224 749 q 4232 738 4229 747 l 4299 433 q 4300 426 4299 432 q 4300 419 4300 422 q 4285 410 4300 410 l 4097 410 q 4079 418 4079 410 q 4082 431 4079 422 l 4218 738 z "},"«":{"ha":811,"x_min":49,"x_max":771,"o":"m 593 357 l 771 117 l 629 17 l 392 357 l 629 696 l 767 600 l 593 357 m 250 357 l 428 117 l 285 17 l 49 357 l 285 696 l 424 600 l 250 357 z "},"»":{"ha":811,"x_min":32,"x_max":754,"o":"m 210 357 l 36 600 l 174 696 l 411 357 l 174 17 l 32 117 l 210 357 m 553 357 l 379 600 l 518 696 l 754 357 l 518 17 l 375 117 l 553 357 z "},"…":{"ha":1425,"x_min":57,"x_max":1306,"o":"m 372 143 q 328 26 372 74 q 217 -21 283 -21 q 104 27 151 -21 q 57 140 57 75 q 102 251 57 206 q 211 297 147 297 q 326 252 279 297 q 372 143 372 207 m 839 143 q 794 26 839 74 q 682 -21 749 -21 q 571 27 618 -21 q 524 140 524 75 q 569 251 524 206 q 678 297 614 297 q 792 252 744 297 q 839 143 839 207 m 1306 142 q 1260 26 1306 72 q 1149 -21 1215 -21 q 1036 27 1083 -21 q 989 140 989 75 q 1034 251 989 206 q 1143 297 1079 297 q 1258 252 1211 297 q 1306 142 1306 207 z "}," ":{"ha":390,"x_min":0,"x_max":0,"o":""},"À":{"ha":1086,"x_min":-22,"x_max":1043,"o":"m 681 1393 l 740 1136 l 551 1136 l 413 1393 l 681 1393 m 357 190 l 269 0 l -22 0 l 493 1042 l 790 1042 l 1043 0 l 765 0 l 719 190 l 357 190 m 454 399 l 667 399 l 628 581 q 613 650 621 611 q 599 738 608 674 q 586 701 594 724 q 551 614 571 656 l 454 399 z "},"Ã":{"ha":1086,"x_min":-22,"x_max":1043,"o":"m 988 1403 q 946 1231 978 1293 q 797 1136 899 1136 q 683 1168 747 1136 l 622 1199 q 557 1219 581 1219 q 501 1142 506 1219 l 322 1142 q 367 1300 340 1243 q 528 1397 411 1397 q 676 1350 586 1397 q 756 1322 729 1322 q 817 1403 811 1322 l 988 1403 m 357 190 l 269 0 l -22 0 l 493 1042 l 790 1042 l 1043 0 l 765 0 l 719 190 l 357 190 m 454 399 l 667 399 l 628 581 q 613 650 621 611 q 599 738 608 674 q 586 701 594 724 q 551 614 571 656 l 454 399 z "},"Õ":{"ha":1261,"x_min":85,"x_max":1219,"o":"m 1219 574 l 1219 554 q 1064 138 1219 296 q 653 -21 908 -21 q 242 126 400 -21 q 85 507 85 272 q 250 907 85 751 q 675 1063 415 1063 q 1066 926 913 1063 q 1219 574 1219 790 m 1078 1403 q 1036 1231 1068 1293 q 888 1136 989 1136 q 774 1168 839 1136 l 711 1199 q 646 1219 668 1219 q 590 1142 596 1219 l 413 1142 q 457 1300 431 1246 q 617 1397 503 1397 q 767 1350 675 1397 q 844 1322 821 1322 q 907 1403 899 1322 l 1078 1403 m 949 544 q 864 741 940 669 q 664 813 788 813 q 442 728 529 813 q 356 515 356 644 q 437 308 356 388 q 649 229 518 229 q 865 312 781 229 q 950 521 950 394 q 949 544 950 525 z "},"Œ":{"ha":1600,"x_min":85,"x_max":1611,"o":"m 917 24 q 649 -36 800 -36 q 243 116 401 -36 q 85 507 85 268 q 252 917 85 756 q 675 1079 419 1079 q 1032 960 868 1079 l 1047 949 l 1036 957 l 1032 960 l 1040 1042 l 1611 1042 l 1583 813 l 1276 813 l 1256 632 l 1551 632 l 1525 403 l 1228 403 l 1206 229 l 1525 229 l 1496 0 l 914 0 l 917 24 m 664 829 q 443 739 532 829 q 354 514 354 649 q 437 299 354 383 q 646 214 519 214 q 863 302 776 214 q 949 525 949 390 q 868 743 949 657 q 664 829 788 829 z "},"œ":{"ha":1410,"x_min":47,"x_max":1356,"o":"m 846 303 q 887 194 853 228 q 990 161 921 161 q 1101 214 1068 161 l 1339 214 q 1232 51 1283 99 q 997 -21 1153 -21 q 793 19 882 -21 q 690 94 736 46 q 604 29 640 50 q 400 -21 515 -21 q 144 78 240 -21 q 47 342 47 178 q 155 619 47 514 q 438 724 263 724 q 711 618 597 724 q 794 675 758 656 q 997 724 888 724 q 1263 631 1165 724 q 1356 358 1356 542 q 1354 303 1356 326 l 846 303 m 613 369 q 576 480 613 440 q 475 519 539 519 q 357 465 404 519 q 310 331 310 411 q 347 223 310 263 q 449 183 385 183 q 565 237 518 183 q 613 369 613 290 m 872 449 l 1138 449 q 1010 560 1115 560 q 872 449 893 560 z "},"–":{"ha":975,"x_min":118,"x_max":857,"o":"m 118 474 l 857 474 l 857 265 l 118 265 l 118 474 z "},"—":{"ha":1076,"x_min":53,"x_max":1025,"o":"m 1025 731 l 1025 411 l 53 411 l 53 731 l 1025 731 z "},"“":{"ha":635,"x_min":92,"x_max":639,"o":"m 307 1061 l 285 618 l 114 618 l 92 1061 l 307 1061 m 639 1061 l 618 618 l 446 618 l 424 1061 l 639 1061 z "},"”":{"ha":626,"x_min":107,"x_max":656,"o":"m 321 1061 l 300 618 l 129 618 l 107 1061 l 321 1061 m 656 1061 l 633 618 l 463 618 l 440 1061 l 656 1061 z "},"‘":{"ha":301,"x_min":92,"x_max":306,"o":"m 306 1061 l 285 618 l 114 618 l 92 1061 l 306 1061 z "},"’":{"ha":292,"x_min":107,"x_max":321,"o":"m 321 1061 l 300 618 l 129 618 l 107 1061 l 321 1061 z "},"÷":{"ha":1097,"x_min":83,"x_max":1057,"o":"m 1057 731 l 1057 411 l 83 411 l 83 731 l 1057 731 m 568 1092 q 669 1050 628 1092 q 710 949 710 1008 q 669 847 710 889 q 569 806 628 806 q 469 847 511 806 q 428 949 428 889 q 469 1049 428 1007 q 568 1092 511 1092 m 567 335 q 667 293 626 335 q 708 192 708 251 q 667 90 708 132 q 568 49 626 49 q 468 90 510 49 q 426 192 426 132 q 468 293 426 251 q 567 335 510 335 z "},"ÿ":{"ha":943,"x_min":21,"x_max":982,"o":"m 982 699 l 310 -385 l 21 -385 l 290 54 l 43 699 l 329 699 l 404 510 q 436 422 417 481 q 463 310 447 383 q 483 354 475 339 q 517 415 485 356 q 554 478 542 461 l 689 699 l 982 699 m 826 949 q 791 860 826 896 q 704 824 756 824 q 613 860 651 824 q 575 950 575 897 q 612 1038 575 1001 q 701 1074 649 1074 q 790 1036 753 1074 q 826 949 826 999 m 511 950 q 476 859 511 896 q 388 822 440 822 q 297 859 335 822 q 260 949 260 896 q 297 1037 260 1000 q 386 1074 333 1074 q 474 1038 438 1074 q 511 950 511 1001 z "},"Ÿ":{"ha":972,"x_min":74,"x_max":1057,"o":"m 896 1267 q 858 1173 896 1211 q 768 1135 821 1135 q 672 1174 711 1135 q 632 1268 632 1213 q 671 1359 632 1321 q 765 1397 710 1397 q 857 1358 818 1397 q 896 1267 896 1319 m 565 1269 q 528 1174 565 1213 q 435 1135 490 1135 q 340 1174 379 1135 q 301 1268 301 1213 q 340 1362 301 1324 q 433 1400 378 1400 q 526 1361 488 1400 q 565 1269 565 1322 m 601 456 l 544 0 l 282 0 l 339 464 l 74 1042 l 367 1042 l 467 806 q 506 699 488 756 q 521 728 511 711 q 557 783 542 768 l 736 1042 l 1057 1042 l 601 456 z "},"¤":{"ha":1297,"x_min":92,"x_max":1207,"o":"m 804 0 l 490 0 l 490 542 l 308 321 l 92 533 l 654 1085 l 1207 533 l 989 321 l 804 542 l 804 0 z "},"‹":{"ha":521,"x_min":63,"x_max":442,"o":"m 264 357 l 442 117 l 300 17 l 63 357 l 300 696 l 438 600 l 264 357 z "},"›":{"ha":521,"x_min":78,"x_max":458,"o":"m 256 357 l 82 600 l 221 696 l 458 357 l 221 17 l 78 117 l 256 357 z "},"‡":{"ha":468,"x_min":33,"x_max":428,"o":"m 243 421 q 133 467 175 421 q 97 582 90 514 q 157 696 104 649 q 276 743 210 743 q 385 696 343 743 q 421 582 428 649 q 362 468 414 515 q 243 421 310 421 m 368 361 l 294 -328 l 33 -328 l 107 361 l 368 361 z "},"·":{"ha":364,"x_min":21,"x_max":385,"o":"m 385 536 q 333 402 385 456 q 204 349 282 349 q 76 403 131 349 q 21 533 21 458 q 74 660 21 607 q 199 714 126 714 q 331 662 276 714 q 385 536 385 610 z "},"‚":{"ha":504,"x_min":-17,"x_max":411,"o":"m 411 231 l 156 -214 l -17 -214 l 196 231 l 411 231 z "},"„":{"ha":1492,"x_min":203,"x_max":1289,"o":"m 203 403 l 203 717 l 744 717 l 524 899 l 736 1115 l 1289 551 l 736 0 l 524 218 l 744 403 l 203 403 z "},"‰":{"ha":1625,"x_min":51,"x_max":1572,"o":"m 1572 706 l 1572 1057 l 1199 1057 l 1199 706 l 1572 706 m 1572 3 l 1572 354 l 1199 354 l 1199 3 l 1572 3 m 824 354 q 638 274 749 274 q 456 349 531 274 q 381 531 381 424 q 456 713 381 638 q 638 788 531 788 q 825 707 749 788 l 1064 932 q 638 1117 890 1117 q 223 945 394 1117 q 51 531 51 774 q 223 116 51 288 q 638 -56 394 -56 q 1064 129 890 -56 l 824 354 z "},"Â":{"ha":1086,"x_min":-22,"x_max":1043,"o":"m 660 1272 l 569 1136 l 356 1136 l 538 1406 l 824 1406 l 922 1136 l 713 1136 l 660 1272 m 357 190 l 269 0 l -22 0 l 493 1042 l 790 1042 l 1043 0 l 765 0 l 719 190 l 357 190 m 454 399 l 667 399 l 628 581 q 613 650 621 611 q 599 738 608 674 q 586 701 594 724 q 551 614 571 656 l 454 399 z "},"Ê":{"ha":764,"x_min":76,"x_max":775,"o":"m 775 1042 l 747 813 l 440 813 l 418 633 l 714 633 l 686 404 l 389 404 l 368 229 l 688 229 l 658 0 l 76 0 l 204 1042 l 296 1042 l 326 1085 l 638 1085 l 668 1042 l 775 1042 z "},"Á":{"ha":1086,"x_min":-22,"x_max":1043,"o":"m 671 1393 l 939 1393 l 736 1136 l 547 1136 l 671 1393 m 357 190 l 269 0 l -22 0 l 493 1042 l 790 1042 l 1043 0 l 765 0 l 719 190 l 357 190 m 454 399 l 667 399 l 628 581 q 613 650 621 611 q 599 738 608 674 q 586 701 594 724 q 551 614 571 656 l 454 399 z "},"Ë":{"ha":807,"x_min":76,"x_max":818,"o":"m 818 1267 q 781 1173 818 1211 q 690 1135 743 1135 q 594 1174 633 1135 q 554 1268 554 1213 q 593 1359 554 1321 q 688 1397 632 1397 q 779 1358 740 1397 q 818 1267 818 1319 m 488 1269 q 450 1174 488 1213 q 357 1135 413 1135 q 263 1174 301 1135 q 224 1268 224 1213 q 262 1362 224 1324 q 356 1400 300 1400 q 449 1361 410 1400 q 488 1269 488 1322 m 775 1042 l 747 813 l 440 813 l 418 633 l 714 633 l 686 404 l 389 404 l 368 229 l 688 229 l 658 0 l 76 0 l 204 1042 l 775 1042 z "},"È":{"ha":764,"x_min":76,"x_max":775,"o":"m 775 1042 l 747 813 l 440 813 l 418 633 l 714 633 l 686 404 l 389 404 l 368 229 l 688 229 l 658 0 l 76 0 l 204 1042 l 296 1042 l 264 1085 l 651 1085 l 683 1042 l 775 1042 z "},"Í":{"ha":454,"x_min":47,"x_max":446,"o":"m 142 771 l 175 1042 l 446 1042 l 413 771 l 142 771 m 396 636 l 318 0 l 47 0 l 125 636 l 396 636 z "},"Î":{"ha":522,"x_min":76,"x_max":642,"o":"m 381 1272 l 289 1136 l 76 1136 l 258 1406 l 544 1406 l 642 1136 l 433 1136 l 381 1272 m 479 1042 l 351 0 l 88 0 l 215 1042 l 479 1042 z "},"Ï":{"ha":515,"x_min":76,"x_max":649,"o":"m 649 1267 q 611 1173 649 1211 q 521 1135 574 1135 q 424 1174 464 1135 q 385 1268 385 1213 q 424 1359 385 1321 q 518 1397 463 1397 q 610 1358 571 1397 q 649 1267 649 1319 m 343 1269 q 306 1174 343 1213 q 213 1135 268 1135 q 118 1174 157 1135 q 79 1268 79 1213 q 117 1362 79 1324 q 211 1400 156 1400 q 304 1361 265 1400 q 343 1269 343 1322 m 468 1042 l 340 0 l 76 0 l 204 1042 l 468 1042 z "},"Ì":{"ha":493,"x_min":76,"x_max":468,"o":"m 389 1393 l 450 1136 l 260 1136 l 121 1393 l 389 1393 m 468 1042 l 340 0 l 76 0 l 204 1042 l 468 1042 z "},"Ó":{"ha":1261,"x_min":85,"x_max":1219,"o":"m 1219 574 l 1219 554 q 1064 138 1219 296 q 653 -21 908 -21 q 242 126 400 -21 q 85 507 85 272 q 250 907 85 751 q 675 1063 415 1063 q 1066 926 913 1063 q 1219 574 1219 790 m 740 1393 l 1008 1393 l 806 1136 l 615 1136 l 740 1393 m 949 544 q 864 741 940 669 q 664 813 788 813 q 442 728 529 813 q 356 515 356 644 q 437 308 356 388 q 649 229 518 229 q 865 312 781 229 q 950 521 950 394 q 949 544 950 525 z "},"Ô":{"ha":1261,"x_min":85,"x_max":1219,"o":"m 1219 574 l 1219 554 q 1064 138 1219 296 q 653 -21 908 -21 q 242 126 400 -21 q 85 507 85 272 q 250 907 85 751 q 675 1063 415 1063 q 1066 926 913 1063 q 1219 574 1219 790 m 749 1272 l 658 1136 l 446 1136 l 628 1406 l 914 1406 l 1011 1136 l 803 1136 l 749 1272 m 949 544 q 864 741 940 669 q 664 813 788 813 q 442 728 529 813 q 356 515 356 644 q 437 308 356 388 q 649 229 518 229 q 865 312 781 229 q 950 521 950 394 q 949 544 950 525 z "},"Ò":{"ha":1261,"x_min":85,"x_max":1219,"o":"m 1219 574 l 1219 554 q 1064 138 1219 296 q 653 -21 908 -21 q 242 126 400 -21 q 85 507 85 272 q 250 907 85 751 q 675 1063 415 1063 q 1066 926 913 1063 q 1219 574 1219 790 m 769 1393 l 831 1136 l 642 1136 l 501 1393 l 769 1393 m 949 544 q 864 741 940 669 q 664 813 788 813 q 442 728 529 813 q 356 515 356 644 q 437 308 356 388 q 649 229 518 229 q 865 312 781 229 q 950 521 950 394 q 949 544 950 525 z "},"Ú":{"ha":1138,"x_min":118,"x_max":1101,"o":"m 1101 1042 l 1028 439 q 985 217 1010 289 q 910 96 960 146 q 553 -21 792 -21 q 250 60 358 -21 q 118 336 118 158 q 131 479 118 376 l 199 1042 l 463 1042 l 394 479 q 388 393 388 422 q 561 229 388 229 q 708 282 661 229 q 765 449 751 329 l 838 1042 l 1101 1042 m 674 1393 l 942 1393 l 739 1136 l 550 1136 l 674 1393 z "},"Û":{"ha":1138,"x_min":118,"x_max":1101,"o":"m 1101 1042 l 1028 439 q 985 217 1010 289 q 910 96 960 146 q 553 -21 792 -21 q 250 60 358 -21 q 118 336 118 158 q 131 479 118 376 l 199 1042 l 463 1042 l 394 479 q 388 393 388 422 q 561 229 388 229 q 708 282 661 229 q 765 449 751 329 l 838 1042 l 1101 1042 m 683 1272 l 592 1136 l 379 1136 l 561 1406 l 847 1406 l 944 1136 l 736 1136 l 683 1272 z "},"Ù":{"ha":1138,"x_min":118,"x_max":1101,"o":"m 1101 1042 l 1028 439 q 985 217 1010 289 q 910 96 960 146 q 553 -21 792 -21 q 250 60 358 -21 q 118 336 118 158 q 131 479 118 376 l 199 1042 l 463 1042 l 394 479 q 388 393 388 422 q 561 229 388 229 q 708 282 661 229 q 765 449 751 329 l 838 1042 l 1101 1042 m 703 1393 l 764 1136 l 575 1136 l 435 1393 l 703 1393 z "},"ˆ":{"ha":865,"x_min":215,"x_max":764,"o":"m 508 957 l 421 824 l 215 824 l 388 1093 l 672 1093 l 764 824 l 565 824 l 508 957 z "},"˜":{"ha":822,"x_min":154,"x_max":788,"o":"m 788 1076 q 747 910 776 967 q 607 824 704 824 q 546 833 574 824 q 439 882 514 844 q 378 903 397 903 q 324 828 328 903 l 154 828 q 161 867 157 843 q 218 1014 181 969 q 347 1072 267 1072 q 492 1028 407 1072 q 565 1001 542 1001 q 624 1076 618 1001 l 788 1076 z "},"¯":{"ha":832,"x_min":107,"x_max":726,"o":"m 107 986 l 726 986 l 726 833 l 107 833 l 107 986 z "},"¸":{"ha":818,"x_min":243,"x_max":521,"o":"m 521 -167 l 339 -337 l 243 -244 l 408 -62 l 521 -167 z "},"Ł":{"ha":656,"x_min":-6,"x_max":614,"o":"m 407 926 l 378 690 l 532 792 l 507 594 l 354 500 l 318 204 l 614 204 l 588 0 l 58 0 l 103 365 l -6 292 l 18 485 l 126 557 l 172 926 l 407 926 z "},"ł":{"ha":396,"x_min":-25,"x_max":468,"o":"m 399 1013 l 353 646 l 468 719 l 444 522 l 329 453 l 274 0 l 44 0 l 85 332 l -25 260 l -1 456 l 108 524 l 169 1013 l 399 1013 z "},"∑":{"ha":188,"x_min":0,"x_max":188,"o":"m 188 539 q 160 469 188 497 q 92 440 132 440 q 26 469 53 440 q 0 538 0 497 q 26 603 0 576 q 92 631 53 631 q 159 603 131 631 q 188 539 188 576 z "}}}
